<?xml version="1.0" standalone="no"?>
<svg xmlns:xlink="http://www.w3.org/1999/xlink" id="wave" style="transform:rotate(0deg); transition: 0.3s" viewBox="0 0 1440 490" version="1.1" xmlns="http://www.w3.org/2000/svg"><defs><linearGradient id="sw-gradient-0" x1="0" x2="0" y1="1" y2="0"><stop stop-color="rgba(255, 255, 255, 1)" offset="0%"/><stop stop-color="rgba(255, 255, 255, 1)" offset="100%"/></linearGradient></defs><path style="transform:translate(0, 0px); opacity:1" fill="url(#sw-gradient-0)" d="M0,98L720,343L1440,98L2160,49L2880,98L3600,392L4320,392L5040,245L5760,196L6480,343L7200,294L7920,392L8640,0L9360,147L10080,147L10800,98L11520,49L12240,196L12960,245L13680,49L14400,147L15120,245L15840,343L16560,343L17280,392L17280,490L16560,490L15840,490L15120,490L14400,490L13680,490L12960,490L12240,490L11520,490L10800,490L10080,490L9360,490L8640,490L7920,490L7200,490L6480,490L5760,490L5040,490L4320,490L3600,490L2880,490L2160,490L1440,490L720,490L0,490Z"/></svg>